<svg width="22" height="22" viewBox="0 0 22 22" fill="none" xmlns="http://www.w3.org/2000/svg">
<g clip-path="url(#clip0_3577_24054)">
<path d="M11.0013 2.24766C12.6476 2.24766 14.2435 2.70882 15.6208 3.56573L14.8994 3.63972L14.7501 3.65503L14.7654 3.80424L14.886 4.9797L14.9013 5.12892L15.0505 5.11361L18.1228 4.79851L18.272 4.7832L18.2567 4.63399L17.9416 1.56172L17.9263 1.4125L17.7771 1.42781L16.6016 1.54837L16.4524 1.56368L16.4677 1.7129L16.5374 2.39245C14.8966 1.33583 12.9799 0.766016 11.0013 0.766016C8.26817 0.766016 5.69788 1.83068 3.76526 3.7633C1.83264 5.69592 0.767969 8.26621 0.767969 10.9993C0.767969 13.0454 1.37016 15.0209 2.50944 16.7115L2.59326 16.8359L2.71765 16.7521L3.69755 16.0918L3.82183 16.008L3.73819 15.8836C3.72994 15.8714 3.72236 15.8598 3.7143 15.8476C3.70933 15.84 3.70418 15.8322 3.69858 15.8237C2.75061 14.3919 2.24961 12.7258 2.24961 10.9993C2.24961 8.66143 3.15974 6.46416 4.81293 4.81097C6.46611 3.15779 8.66335 2.24766 11.0013 2.24766Z" fill="#474A6C" stroke="#474A6C" stroke-width="0.3"/>
<path d="M19.4926 5.28727L19.4088 5.16288L18.3034 6.1751C18.3035 6.17511 18.3035 6.17512 18.3035 6.17514C19.2514 7.60689 19.7524 9.27304 19.7524 10.9994C19.7524 13.3374 18.8423 15.5346 17.1891 17.1878C15.5359 18.841 13.3387 19.7511 11.0007 19.7511C9.35439 19.7511 7.75853 19.29 6.38127 18.4331L7.10267 18.3591L7.25189 18.3438L7.23658 18.1945L7.11601 17.0191L7.10071 16.8699L6.95149 16.8852L3.87923 17.2003L3.73001 17.2156L3.74531 17.3648L4.06042 20.4371L4.07572 20.5863L4.22494 20.571L5.40044 20.4504L5.54965 20.4351L5.53435 20.2859L5.46465 19.6063C7.1055 20.663 9.02214 21.2328 11.0007 21.2328C13.7339 21.2328 16.3041 20.1681 18.2368 18.2355C20.1694 16.3029 21.2341 13.7326 21.2341 10.9994C21.2341 8.95335 20.6319 6.97786 19.4926 5.28727Z" fill="#474A6C" stroke="#474A6C" stroke-width="0.3"/>
<path d="M5.84122 12.2355L6.60614 11.5286C7.18561 10.9955 7.29574 10.6362 7.29574 10.2421C7.29574 9.48878 6.6525 9.00781 5.71955 9.00781C4.91986 9.00781 4.34617 9.34391 4.03906 9.85387L4.89091 10.329C5.05315 10.0683 5.31972 9.93501 5.61525 9.93501C5.96293 9.93501 6.13679 10.0915 6.13679 10.3522C6.13679 10.5203 6.09043 10.7058 5.76591 11.0071L4.24766 12.4268V13.1454H7.40583V12.2356L5.84122 12.2355Z" fill="#474A6C"/>
<path d="M11.0477 12.3756H11.6503V11.4658H11.0477V10.7762H9.96402V11.4658H9.14117L10.7927 9.0957H9.60473L7.78516 11.628V12.3756H9.92924V13.1521H11.0477V12.3756Z" fill="#474A6C"/>
<path d="M12.6942 13.7302L14.6064 8.27148H13.6271L11.7148 13.7302H12.6942Z" fill="#474A6C"/>
<path d="M15.5809 10.6313V10.0055H16.6471L15.2796 13.1521H16.5313L17.9626 9.81426V9.0957H14.6016V10.6313H15.5809Z" fill="#474A6C"/>
</g>
<defs>
<clipPath id="clip0_3577_24054">
<rect width="22" height="22" fill="white"/>
</clipPath>
</defs>
</svg>
