<svg width="22" height="22" viewBox="0 0 22 22" fill="none" xmlns="http://www.w3.org/2000/svg">
<path d="M19.1331 8.25531H20.8851H20.8852C21.0252 8.25528 21.1622 8.21372 21.2786 8.13589C21.3951 8.05805 21.4858 7.94744 21.5394 7.81802C21.593 7.68862 21.6071 7.54622 21.5797 7.40883C21.5524 7.27145 21.485 7.14525 21.386 7.04619L21.3859 7.04614L17.4136 3.07473C17.4136 3.07471 17.4135 3.0747 17.4135 3.07468C17.3477 3.00884 17.2695 2.95662 17.1835 2.92102C17.0975 2.88543 17.0053 2.86714 16.9123 2.86719L19.1331 8.25531ZM19.1331 8.25531V18.4255C19.1331 18.6134 19.0585 18.7936 18.9256 18.9264C18.7928 19.0592 18.6126 19.1339 18.4248 19.1339H3.57478C3.38692 19.1339 3.20675 19.0592 3.07391 18.9264C2.94107 18.7936 2.86644 18.6134 2.86644 18.4255V8.24523M19.1331 8.25531L2.86644 8.24523M2.86644 8.24523V7.99523V8.24523ZM2.86644 8.24523H3.11644M2.86644 8.24523H3.11644M3.11644 8.24523V18.4255C3.11644 18.5471 3.16473 18.6637 3.25069 18.7496L3.11644 8.24523ZM16.9121 2.86719L5.06069 2.86719L5.06064 2.86719C4.87281 2.86723 4.69269 2.94187 4.55989 3.07469C4.55987 3.0747 4.55986 3.07472 4.55985 3.07473L0.598053 7.03607L0.598017 7.0361C0.4989 7.13525 0.431432 7.26158 0.404159 7.3991C0.376885 7.53661 0.391031 7.67913 0.444807 7.8086C0.498582 7.93807 0.589568 8.04867 0.706242 8.1264C0.822831 8.20407 0.959833 8.24542 1.09992 8.24523H1.09978V7.99523L1.10022 8.24523L16.9121 2.86719ZM17.7164 17.7172H4.28311V8.2472L17.7164 8.25471V17.7172ZM5.35401 4.28385H16.6194L19.1744 6.83877L2.80844 6.82981L5.35401 4.28385Z" fill="#474A6C" stroke="#474A6C" stroke-width="0.5"/>
</svg>
