<svg width="17" height="16" viewBox="0 0 17 16" fill="none" xmlns="http://www.w3.org/2000/svg">
<path d="M9.36335 3.63905L13.0572 7.33285H2.66667C2.29847 7.33285 2 7.63138 2 7.99951C2 8.36771 2.29847 8.66618 2.66667 8.66618H13.0572L9.36335 12.36C9.10301 12.6204 9.10301 13.0425 9.36335 13.3028C9.62375 13.5632 10.0458 13.5632 10.3061 13.3028L15.1381 8.47098C15.3984 8.21058 15.3984 7.78851 15.1381 7.52811L10.3061 2.69624C10.1755 2.56561 10.0042 2.50053 9.83301 2.50098C9.79095 2.50109 9.74888 2.50516 9.70741 2.51318C9.58135 2.53759 9.46101 2.59861 9.36335 2.69624C9.10301 2.95659 9.10301 3.3787 9.36335 3.63905Z" fill="#ffffff"/>
</svg>
