<svg width="27" height="27" viewBox="0 0 27 27" fill="none" xmlns="http://www.w3.org/2000/svg">
<path d="M14.7281 25.1418H4.83656C3.72628 25.1418 2.81788 24.3159 2.81788 23.3066V3.67033C2.81788 2.66099 3.72628 1.83517 4.83656 1.83517H14.7281C15.2832 1.83517 15.7374 1.42225 15.7374 0.917583C15.7374 0.412912 15.2832 0 14.7281 0H4.83656C2.61601 0 0.799194 1.65165 0.799194 3.67033V23.3066C0.799194 25.3253 2.61601 26.9769 4.83656 26.9769H14.7281C15.2832 26.9769 15.7374 26.564 15.7374 26.0593C15.7374 25.5547 15.2832 25.1418 14.7281 25.1418Z" fill="white"/>
<path d="M26.4846 13.3509C26.4846 13.3051 26.4846 13.3051 26.4342 13.2592C26.4342 13.2133 26.4342 13.1674 26.3837 13.1674C26.3332 13.1674 26.3837 13.1216 26.3332 13.0757C26.3332 13.0298 26.3332 13.0298 26.2828 13.0298V12.938L19.823 6.56084C19.4193 6.19381 18.7632 6.1938 18.3595 6.51496C17.9557 6.88199 17.9557 7.43254 18.309 7.79957L23.2043 12.571H9.22492C8.66978 12.571 8.21558 12.9839 8.21558 13.4886C8.21558 13.9933 8.66978 14.4062 9.22492 14.4062H23.2043L18.309 19.1776C17.9557 19.5446 17.9557 20.0952 18.3595 20.4622C18.5613 20.6457 18.8137 20.7375 19.066 20.7375C19.3688 20.7375 19.6211 20.5999 19.823 20.4163L26.2323 14.1309V14.0391C26.2828 14.0391 26.2828 14.0391 26.2828 13.9933C26.3837 13.9474 26.3837 13.9474 26.3837 13.9015C26.4342 13.9015 26.4342 13.8556 26.4342 13.8097C26.4846 13.7639 26.4846 13.7639 26.4846 13.718C26.4846 13.6721 26.5351 13.5803 26.5351 13.5345C26.5351 13.4886 26.4846 13.3968 26.4846 13.3509Z" fill="white"/>
</svg>
